<?xml version="1.0" standalone="no"?>
<!DOCTYPE svg PUBLIC "-//W3C//DTD SVG 20010904//EN"
 "http://www.w3.org/TR/2001/REC-SVG-20010904/DTD/svg10.dtd">
<svg version="1.0" xmlns="http://www.w3.org/2000/svg"
 width="513.000000pt" height="513.000000pt" viewBox="0 0 513.000000 513.000000"
 preserveAspectRatio="xMidYMid meet">
<metadata>
Created by potrace 1.11, written by Peter Selinger 2001-2013
</metadata>
<g transform="translate(0.000000,513.000000) scale(0.100000,-0.100000)"
fill="#000000" stroke="none">
<path d="M4571 4759 c-67 -13 -116 -47 -250 -177 l-124 -119 269 -273 269
-272 128 128 c153 154 178 196 180 307 2 105 -34 175 -143 280 -116 113 -209
148 -329 126z"/>
<path d="M762 4698 c-136 -15 -239 -66 -342 -169 -47 -47 -80 -91 -104 -141
-69 -141 -65 -1 -63 -1943 l2 -1760 24 -70 c65 -185 212 -328 396 -383 43 -13
232 -15 1390 -17 1431 -2 1393 -3 1502 46 127 59 223 151 286 276 63 124 60
71 61 1161 1 545 -1 992 -4 992 -3 0 -94 -89 -202 -197 l-198 -198 -2 -786 -3
-786 -27 -35 c-15 -19 -44 -43 -65 -53 -36 -18 -103 -19 -1318 -19 -704 -1
-1293 2 -1309 6 -48 12 -95 51 -116 96 -20 42 -20 57 -18 1756 l3 1715 21 27
c11 15 37 42 58 58 l38 31 1306 0 1307 0 37 -23 c20 -12 50 -43 66 -67 l29
-44 147 148 146 147 -57 57 c-68 67 -110 97 -184 131 -116 52 -62 50 -1449 50
-712 1 -1324 -2 -1358 -6z"/>
<path d="M3021 3286 c-580 -580 -1056 -1061 -1057 -1068 -4 -18 -130 -580
-147 -654 l-15 -61 267 68 c146 38 305 79 353 91 l87 22 1056 1056 1057 1057
-271 272 c-150 149 -273 271 -274 271 -1 0 -476 -474 -1056 -1054z"/>
</g>
</svg>
